HIERARCHY
ROOT Hips
{
	OFFSET 0.00000 0.00000 0.00000
	CHANNELS 6 Xposition Yposition Zposition Yrotation Zrotation Xrotation 
	JOINT Lumbar
	{
		OFFSET 0 0 0
		CHANNELS 3 Zrotation Xrotation Yrotation
		JOINT Neck
		{
			OFFSET 0.00 0.2701 0.00
			CHANNELS 3 Zrotation Xrotation Yrotation
			End Site
			{
				OFFSET 0.00 0.1379 0.00
			}
		}
		JOINT RightShoulder
		{
			OFFSET 0.0119 0.2289 0.1181
			CHANNELS 3 Zrotation Xrotation Yrotation
			JOINT RightElbow
			{
				OFFSET 0.00 -0.1475 0.00
				CHANNELS 2 Zrotation Yrotation
				JOINT RightWrist
				{
					OFFSET 0.00 -0.1605 0.00
					CHANNELS 2 Zrotation Xrotation
					End Site
					{
						OFFSET 0.0040 -0.1068 0.0006
					}
				}
			}
		}
		JOINT LeftShoulder
		{
			OFFSET 0.0119 0.2289 -0.1181
			CHANNELS 3 Zrotation Xrotation Yrotation
			JOINT LeftElbow
			{
				OFFSET 0.00 -0.1475 0.00
				CHANNELS 2 Zrotation Yrotation
				JOINT LeftWrist
				{
					OFFSET 0.00 -0.1605 0.00
					CHANNELS 2 Zrotation Xrotation
					End Site
					{
						OFFSET 0.0040 -0.1068 -0.0006
					}
				}
			}
		}
	}
	JOINT RightHip
	{
		OFFSET 0.0316 -0.0424 0.0458
		CHANNELS 3 Zrotation Xrotation Yrotation
		JOINT RightKnee
		{
			OFFSET 0.00 -0.2438 0.00
			CHANNELS 1 Zrotation
			JOINT RightAnkle
			{
				OFFSET 0.00 -0.2449 0.00
				CHANNELS 3 Zrotation Xrotation Yrotation
				End Site
				{
					OFFSET 0.1237 -0.0542 0.0051
				}
			}
		}
	}
	JOINT LeftHip
	{
		OFFSET 0.0316 -0.0424 -0.0458
		CHANNELS 3 Zrotation Xrotation Yrotation
		JOINT LeftKnee
		{
			OFFSET 0.00 -0.2438 0.00
			CHANNELS 1 Zrotation
			JOINT LeftAnkle
			{
				OFFSET 0.00 -0.2449 0.00
				CHANNELS 3 Zrotation Xrotation Yrotation
				End Site
				{
					OFFSET 0.1237 -0.0542 -0.0051
				}
			}
		}
	}
}
MOTION
Frames: 22
Frame Time: 0.02
7e-05 -0.00022 0.00054 -177.46745 -29.1395 -1.56877 42.51548 1.61703 -4.23428 -10.19002 -1.89476 -0.95159 -22.20608 -8.36502 -0.4629 31.52377 89.3726 6.98213 0.01008 -28.07329 10.68128 6.12236 29.39792 -112.96215 18.1862 -3.2016 29.39394 0.99951 -15.4237 -19.37449 -7.09734 -2.40381 -3.42169 32.21327 5.32942 7.63664 -26.0878 -7.69238 3.16029 3.80749
0.00028 -0.00022 0.00042 -177.46514 -29.33309 -1.57362 42.69208 1.60695 -4.24218 -10.28254 -1.88657 -0.95388 -22.52306 -8.37278 -0.82928 31.32098 89.38273 6.98746 0.01667 -28.23028 10.68717 6.14373 29.45255 -112.88924 18.21481 -3.17802 29.66654 1.00218 -15.42712 -19.44111 -7.09742 -2.39773 -3.4193 32.48104 5.32948 7.57195 -26.14082 -7.69379 3.1604 3.80976
0.00048 -0.00022 0.0003 -177.46273 -29.52581 -1.57844 42.86784 1.5969 -4.25022 -10.37484 -1.87849 -0.95621 -22.83923 -8.38067 -1.19447 31.11927 89.39306 6.99288 0.02328 -28.38643 10.69302 6.16451 29.50741 -112.81616 18.24324 -3.15445 29.93798 1.00482 -15.43085 -19.50744 -7.09749 -2.39165 -3.4169 32.74767 5.32976 7.50839 -26.19361 -7.69514 3.16041 3.81198
0.00069 -0.00022 0.00018 -177.4604 -29.71874 -1.58327 43.04383 1.58685 -4.25812 -10.46709 -1.87034 -0.9585 -23.15529 -8.38842 -1.55972 30.91717 89.40307 6.99818 0.02982 -28.5429 10.69888 6.18575 29.56193 -112.74342 18.27175 -3.13094 30.20966 1.00749 -15.43433 -19.57383 -7.09756 -2.38559 -3.41452 33.01454 5.32986 7.44408 -26.24645 -7.69653 3.1605 3.81425
0.00089 -0.00022 5e-05 -177.4582 -29.91267 -1.58814 43.22079 1.57679 -4.26581 -10.55954 -1.86204 -0.96073 -23.47202 -8.396 -1.92618 30.71386 89.41316 7.00343 0.03642 -28.70029 10.70481 6.20774 29.61608 -112.67099 18.30046 -3.10745 30.48269 1.01019 -15.43736 -19.64055 -7.09764 -2.37953 -3.41214 33.28273 5.32962 7.37821 -26.29955 -7.69799 3.16073 3.81659
0.0011 -0.00022 -7e-05 -177.45535 -30.10289 -1.59286 43.39407 1.56675 -4.27461 -10.65151 -1.85444 -0.96325 -23.78698 -8.40455 -2.28866 30.51553 89.42416 7.00925 0.04307 -28.85381 10.71048 6.22593 29.67245 -112.59653 18.32829 -3.08369 30.75082 1.01269 -15.44252 -19.70605 -7.09771 -2.3734 -3.40972 33.54614 5.33097 7.31945 -26.35172 -7.69911 3.16028 3.81855
0.00131 -0.00022 -0.00019 -177.45379 -30.30023 -1.59787 43.57445 1.55666 -4.28116 -10.74438 -1.84542 -0.9652 -24.10529 -8.41112 -2.65875 30.30736 89.4324 7.01373 0.0494 -29.01506 10.71666 6.25188 29.72423 -112.5263 18.35788 -3.06052 31.02831 1.01561 -15.44347 -19.7739 -7.09779 -2.36743 -3.40739 33.81867 5.3292 7.24671 -26.40566 -7.70091 3.16117 3.82126
0.00151 -0.00021 -0.00031 -177.45111 -30.49126 -1.60261 43.74849 1.54664 -4.28978 -10.83634 -1.83773 -0.96766 -24.42027 -8.41953 -3.02182 30.10832 89.44484 7.01977 0.05642 -29.16896 10.72238 6.27042 29.78037 -112.45206 18.3858 -3.03679 31.29753 1.01813 -15.44816 -19.83968 -7.09786 -2.36131 -3.40497 34.08314 5.33018 7.18637 -26.45803 -7.70211 3.16088 3.82331
0.00172 -0.00021 -0.00043 -177.44675 -30.67358 -1.60704 43.91394 1.53662 -4.30099 -10.92754 -1.83161 -0.9708 -24.73227 -8.43016 -3.37646 29.92019 89.45592 7.02646 0.0627 -29.31478 10.7275 6.28082 29.84142 -112.37323 18.41186 -3.01239 31.55525 1.02018 -15.45805 -19.90256 -7.09792 -2.35499 -3.40246 34.33641 5.33504 7.14329 -26.50826 -7.70246 3.15894 3.82444
0.00192 -0.00021 -0.00055 -177.45114 -30.903 -1.61331 44.12629 1.52635 -4.29748 -11.02418 -1.81627 -0.97022 -25.06471 -8.42792 -3.78007 29.66857 89.45531 7.02562 0.0685 -29.5098 10.73595 6.34083 29.87299 -112.32174 18.44921 -2.99187 31.87495 1.02502 -15.43993 -19.98098 -7.09806 -2.34977 -3.4005 34.6501 5.31915 7.00724 -26.57012 -7.70733 3.16585 3.83052
0.00213 -0.0002 -0.00066 -177.43766 -31.03498 -1.61567 44.24135 1.51674 -4.32488 -11.10863 -1.82052 -0.97734 -25.35191 -8.45288 -4.08003 29.55134 89.49181 7.04306 0.07832 -29.59929 10.73744 6.29445 29.96747 -112.21203 18.46237 -2.96319 32.06657 1.02392 -15.47966 -20.02735 -7.09801 -2.34228 -3.3974 34.83889 5.346 7.06319 -26.60791 -7.7029 3.1545 3.82638
0.00234 -0.00016 -0.00076 -177.36985 -30.88066 -1.60733 44.07282 1.50784 -4.4392 -11.16518 -1.87783 -1.00719 -25.53104 -8.55322 -4.09472 29.80323 89.52131 7.08994 0.0728 -29.41054 10.71927 5.96703 30.23096 -111.94506 18.41132 -2.91172 31.88079 1.00678 -15.68973 -19.9788 -7.09746 -2.32822 -3.39102 34.66003 5.50018 7.68591 -26.57502 -7.67081 3.08911 3.79203
0.00255 -0.0001 -0.00084 -177.28511 -30.63177 -1.59508 43.80945 1.4998 -4.58418 -11.20841 -1.95488 -1.04449 -25.66162 -8.68092 -4.00481 30.19007 89.6028 7.15793 0.0749 -29.11376 10.69429 5.53068 30.55854 -111.619 18.3356 -2.85217 31.57091 0.98368 -15.95564 -19.89925 -7.09672 -2.31197 -3.38354 34.36008 5.69552 8.49429 -26.51878 -7.62976 3.00608 3.7478
0.00277 -4e-05 -0.00093 -177.21154 -30.43878 -1.58457 43.60061 1.49208 -4.71372 -11.25418 -2.02343 -1.07734 -25.8041 -8.79538 -3.96421 30.51487 89.73856 7.2312 0.09238 -28.85896 10.67267 5.13711 30.85887 -111.31859 18.26976 -2.79652 31.33513 0.96302 -16.18856 -19.83855 -7.09605 -2.29695 -3.37664 34.13221 5.86536 9.19129 -26.4763 -7.59423 2.93374 3.70955
0.00296 1e-05 -0.00102 -177.12316 -30.19195 -1.57412 43.34426 1.48135 -4.84962 -11.31497 -2.09025 -1.11467 -25.98999 -8.91251 -3.91873 30.84274 89.56809 7.24621 0.03567 -28.63379 10.64955 4.77198 31.15043 -111.02388 18.20945 -2.73973 31.02555 0.9432 -16.45416 -19.7581 -7.09545 -2.28089 -3.36934 33.83333 6.06358 10.00159 -26.42065 -7.55265 2.8502 3.66506
0.0032 7e-05 -0.00109 -177.06173 -30.03368 -1.56273 43.1632 1.47712 -4.97963 -11.34107 -2.16508 -1.14447 -26.07319 -9.03152 -3.85511 31.19645 90.01953 7.38191 0.12858 -28.32152 10.62839 4.32148 31.47665 -110.70237 18.1318 -2.68359 30.8388 0.92058 -16.66437 -19.71094 -7.09467 -2.26654 -3.36268 33.65213 6.21294 10.62129 -26.38668 -7.52144 2.78568 3.63113
0.00359 0.00012 -0.00113 -177.07793 -30.15365 -1.54875 43.22394 1.49024 -5.08514 -11.27678 -2.25948 -1.15138 -25.89153 -9.14061 -3.79812 31.58612 92.42241 7.89507 0.69148 -27.79392 10.61076 3.6653 31.87256 -110.32675 18.01147 -2.62909 31.03487 0.88863 -16.7127 -19.76777 -7.09322 -2.25682 -3.35764 33.83922 6.21249 10.65526 -26.42046 -7.52205 2.77938 3.62968
0.00404 0.00018 -0.00114 -177.12201 -30.36411 -1.53413 43.36185 1.50991 -5.18381 -11.1777 -2.36081 -1.15051 -25.607 -9.252 -3.72116 31.99755 95.40663 8.52041 1.39458 -27.18286 10.59615 2.92658 32.30306 -109.92342 17.87414 -2.57546 31.35644 0.85463 -16.70256 -19.85838 -7.09164 -2.24902 -3.35337 34.14646 6.16215 10.49277 -26.47648 -7.53327 2.79267 3.63907
0.00446 0.00024 -0.00116 -177.15394 -30.52619 -1.52048 43.45735 1.5269 -5.28608 -11.09309 -2.4575 -1.1534 -25.36508 -9.36813 -3.63236 32.40057 97.95851 9.06111 1.99393 -26.61064 10.58233 2.22323 32.72443 -109.53151 17.74588 -2.52343 31.61183 0.82358 -16.71593 -19.93061 -7.09028 -2.24077 -3.34905 34.38967 6.138 10.4303 -26.52092 -7.53892 2.79601 3.64283
0.00488 0.0003 -0.00118 -177.18308 -30.71541 -1.5039 43.58014 1.54284 -5.38732 -11.01347 -2.56129 -1.15561 -25.13877 -9.46164 -3.62631 32.80212 101.20823 9.74183 2.7591 -26.03001 10.55855 1.52434 33.12014 -109.14982 17.61339 -2.46464 31.90135 0.78383 -16.74373 -20.01448 -7.08822 -2.23069 -3.34345 34.66818 6.10114 10.33214 -26.57076 -7.5472 2.80284 3.64902
0.00531 0.00036 -0.00121 -177.22488 -30.87107 -1.49324 43.66613 1.56228 -5.48872 -10.91564 -2.65155 -1.15729 -24.85637 -9.60138 -3.44692 33.21007 103.1592 10.16083 3.21643 -25.4495 10.55705 0.79895 33.57677 -108.73185 17.4831 -2.4178 32.15138 0.76176 -16.7274 -20.08259 -7.0876 -2.22489 -3.34068 34.90362 6.07749 10.25529 -26.61493 -7.55289 2.80767 3.6531
0.00576 0.00038 -0.00128 -177.29482 -30.91011 -1.49981 43.62801 1.59157 -5.59186 -10.77383 -2.7037 -1.15948 -24.44281 -9.87737 -2.77354 33.63022 101.23092 9.79865 2.75148 -24.88167 10.61018 0.01341 34.19171 -108.30317 17.38925 -2.42553 32.26056 0.78923 -16.59861 -20.09866 -7.09096 -2.23058 -3.34582 34.98804 6.11023 10.3196 -26.63814 -7.54685 2.79883 3.64666
